<svg xmlns="http://www.w3.org/2000/svg" width="1183" height="385" fill="none" viewBox="0 0 1183 385"><path fill="#fff" d="M423.693 384V101.5l181 128 169-127V384h-62V226l-106.5 88-116.5-88v158z"/><path fill="#000" d="m604.684 228.881 169.509-127.382V384.5h-63V227.062l-105.681 87.324-.305.251-.315-.238-115.699-87.394V384.5h-66V100.534zM424.193 383.5h64V224.996l116.987 88.366 107.013-88.424V383.5h61V103.501L604.702 230.119 424.193 102.466z"/><path fill="#ec0000" d="M423.693 1.5v80l182.5 124 167-124.5V4.5l-167 118z"/><path fill="#000" d="M606.185 121.894 773.693 3.534v77.717l-.201.15-167.285 124.712-.295-.199-182.719-124.15V.569zM424.193 81.235 606.18 204.887 772.693 80.749V5.465l-166.491 117.64-.285-.188L424.193 2.432z"/><path fill="#ec0000" d="m383.193.5-59.5 65h-212s-5.881.868-9.5 2c-7.674 2.4-11.805 4.873-18 10-5.221 4.322-8.037 7.173-11.5 13-4.672 7.862-6.036 13.366-6.5 22.5-.338 6.676.095 10.593 2 17 2.067 6.948 4.1 10.74 8.5 16.5 5.555 7.271 9.801 10.938 18 15 6.369 3.155 17.5 5 17.5 5h168s15.285 2.52 24.5 6c14.6 5.513 22.291 10.683 34 21 11.35 10 16.832 16.962 24.5 30 6.253 10.63 12.5 29 12.5 29s1.77 21.75 0 35.5c-1.565 12.166-2.849 19.15-7.5 30.5-5.423 13.234-9.949 20.354-19.5 31-8.898 9.92-14.911 14.92-26.5 21.5-17.26 9.8-49 13.5-49 13.5h-272l60.5-61.5h211.5s11.216-2.805 17.5-6.5c12.069-7.096 19.036-14.073 23-27.5 2.82-9.551 2.753-15.93 0-25.5-2.815-9.787-6.587-15.017-14-22-8.454-7.964-26.5-13.5-26.5-13.5h-158.5c-16-.5-21.585-.758-35.5-6.5-31.5-13-36-22-47.5-32-9.2-8-19.166-29.667-23-39.5-3.666-12-9-41.7-1-64.5 10-28.5 12-28 18.5-38s20.5-24.5 41-35.5c16.4-8.8 33.834-11.333 40.5-11.5z"/><path fill="#000" d="m384.329 0-60.267 65.838-.149.162H111.731l-.03.005-.191.028a108.406 108.406 0 0 0-3.118.534c-1.919.358-4.27.854-6.049 1.41-7.603 2.379-11.678 4.814-17.831 9.908-5.192 4.298-7.964 7.108-11.389 12.87-4.624 7.782-5.97 13.203-6.43 22.27-.337 6.622.091 10.482 1.98 16.832 2.047 6.885 4.051 10.623 8.418 16.339 5.512 7.216 9.7 10.83 17.824 14.856 3.131 1.551 7.461 2.791 11.033 3.645a109 109 0 0 0 5.843 1.226l.36.062.082.015h168.001l.04.007h.003l.009.002.034.006.13.021.504.086a223.375 223.375 0 0 1 8.138 1.584c4.977 1.066 11.133 2.572 15.778 4.326 14.668 5.539 22.409 10.745 34.153 21.093 11.394 10.038 16.909 17.043 24.601 30.121 3.147 5.35 6.284 12.631 8.629 18.557a275 275 0 0 1 3.632 9.721l.21.604.053.157.014.04.003.01.001.003.001.001.02.058.004.062v.002l.001.003.001.012.004.047.014.186.054.717a296.406 296.406 0 0 1 .591 11.652c.222 7.161.223 16.069-.667 22.985-1.568 12.188-2.859 19.221-7.533 30.626-5.445 13.289-10.003 20.457-19.591 31.145-8.932 9.957-14.985 14.993-26.625 21.601-8.701 4.939-21.014 8.327-31.115 10.479a232 232 0 0 1-12.827 2.349c-1.626.25-2.936.434-3.841.554-.452.061-.803.105-1.041.135l-.271.033-.07.009-.017.002h-.005l-.001.001-.029.003H0l61.337-62.351.146-.149h211.648l.065-.017.365-.094a115.081 115.081 0 0 0 5.872-1.729c3.583-1.161 7.915-2.772 11.007-4.591 6.011-3.534 10.719-7.021 14.415-11.273 3.692-4.248 6.394-9.282 8.359-15.938 1.401-4.744 2.077-8.677 2.069-12.599-.008-3.924-.702-7.863-2.07-12.62-2.785-9.682-6.499-14.838-13.862-21.775-4.159-3.917-10.715-7.264-16.275-9.64a119 119 0 0 0-7.097-2.763 97 97 0 0 0-2.732-.92l-.129-.041h-158.44c-7.992-.25-13.423-.44-18.598-1.291-5.186-.853-10.099-2.367-17.077-5.247-15.781-6.513-24.824-12.034-31.37-17.194-3.27-2.579-5.909-5.061-8.443-7.518-2.539-2.46-4.963-4.884-7.825-7.373-4.674-4.065-9.502-11.553-13.625-19.202-4.132-7.666-7.59-15.561-9.512-20.493l-.007-.018-.006-.018c-1.845-6.036-4.101-16.499-4.896-28.312-.794-11.81-.128-25.011 3.903-36.5 5.001-14.254 8.012-21.287 10.595-26.012 1.294-2.365 2.477-4.148 3.74-5.96s2.598-3.644 4.217-6.135c6.548-10.073 20.612-24.63 41.183-35.667C83.438 2.716 100.951.168 107.681 0zM107.056 1.022c-7.037.307-23.817 2.936-39.626 11.418C47 23.403 33.064 37.846 26.612 47.772c-1.63 2.51-2.983 4.367-4.235 6.163s-2.413 3.546-3.683 5.868c-2.542 4.65-5.53 11.618-10.529 25.863-3.969 11.311-4.637 24.361-3.848 36.101.789 11.727 3.03 22.108 4.851 28.074 1.912 4.902 5.35 12.745 9.453 20.359 4.12 7.643 8.875 14.988 13.4 18.923 2.888 2.511 5.34 4.962 7.864 7.408 2.527 2.45 5.138 4.905 8.368 7.451 6.455 5.09 15.412 10.569 31.13 17.056 6.937 2.863 11.774 4.348 16.86 5.185 5.096.838 10.458 1.027 18.466 1.277h158.56l.071.022.004.001.01.003.041.013.154.049q.205.064.592.19c.513.168 1.255.416 2.171.74 1.831.646 4.361 1.591 7.158 2.786 5.576 2.383 12.271 5.786 16.566 9.832 7.462 7.029 11.292 12.333 14.138 22.225 1.384 4.813 2.101 8.849 2.109 12.895.009 4.047-.691 8.079-2.11 12.886-1.999 6.771-4.763 11.939-8.563 16.31-3.795 4.367-8.605 7.917-14.663 11.479-3.191 1.876-7.61 3.515-11.206 4.68a117 117 0 0 1-5.927 1.744l-.369.097-.096.025-.026.005-.006.002-.002.001-.06.015H61.902L2.387 384h270.779l.06-.007.266-.033a189.186 189.186 0 0 0 4.854-.686 231 231 0 0 0 12.77-2.338c10.084-2.149 22.271-5.511 30.83-10.371 11.539-6.551 17.51-11.516 26.375-21.399 9.513-10.605 14.009-17.676 19.409-30.855 4.629-11.294 5.905-18.231 7.467-30.374.88-6.834.881-15.676.66-22.828a298 298 0 0 0-.589-11.612l-.054-.711-.014-.183q-.017-.053-.051-.149l-.209-.599a270.617 270.617 0 0 0-3.617-9.685c-2.341-5.917-5.455-13.136-8.56-18.416-7.645-12.998-13.094-19.918-24.4-29.879-11.674-10.286-19.314-15.42-33.846-20.907-4.571-1.726-10.666-3.22-15.634-4.284a223 223 0 0 0-8.101-1.577l-.498-.085-.135-.022H112.152l-.041-.007h-.002l-.006-.001-.025-.005-.096-.015-.368-.065a109.371 109.371 0 0 1-5.898-1.237c-3.585-.857-8.007-2.118-11.244-3.722-8.274-4.099-12.579-7.817-18.176-15.144-4.434-5.804-6.497-9.65-8.582-16.661-1.922-6.464-2.361-10.438-2.02-17.168.467-9.202 1.849-14.787 6.57-22.73 3.5-5.891 6.36-8.784 11.611-13.13 6.236-5.161 10.422-7.67 18.169-10.093 1.839-.575 4.239-1.079 6.165-1.438a109 109 0 0 1 3.148-.54l.195-.028.063-.01h.005l.036-.006h211.817l58.585-64H107.706z"/><path fill="#ec0000" d="M909.193 230h-86.5l154.5 154.5h86.497z"/><path fill="#000" d="M909.4 229.5 1064.9 385h-87.914l-155.5-155.5zm68 154.5h85.09L908.986 230.5H823.9z"/><path fill="#fff6f6" d="M824.193 63.5V.5h203.997s15.23 1.165 24.5 4c10.35 3.163 15.72 6.4 24.97 11.981l.03.019c8.26 4.982 12.89 7.982 20 14.5 8.59 7.872 12.71 13.193 19 23 5.99 9.336 8.74 15.067 12.5 25.5 3.62 10.024 5.33 15.91 6.5 26.5 1.51 13.607.73 21.583-2 35-3.07 15.141-5.94 23.821-14 37-7.15 11.69-12.78 17.362-23 26.5-10.89 9.751-17.63 15.06-31 21-10.22 4.543-27.5 8-27.5 8l143.5 151h-87l-202.997-213h131.997s6.24-1.074 10-2.5c6.49-2.456 9.95-4.842 15.5-9 3.66-2.743 5.5-4.548 8.5-8 4.47-5.139 6.23-9 8.5-15.5 2.56-7.303 3.04-11.763 3-19.5-.03-7.545-.96-11.895-3.5-19-1.91-5.346-3.18-8.394-6.5-13-4.44-6.171-8.1-8.89-14.5-13-7.44-4.781-21-8.5-21-8.5z"/><path fill="#000" d="m1028.21 0 .02.001.01.001.04.003.13.01.5.043c.44.037 1.07.094 1.86.17 1.57.154 3.77.39 6.26.713 4.97.647 11.13 1.65 15.81 3.08 10.41 3.183 15.82 6.449 25.08 12.032l.03.02c8.28 4.989 12.93 8.008 20.08 14.559 8.63 7.907 12.78 13.264 19.08 23.098 6.01 9.37 8.78 15.134 12.55 25.6 3.63 10.047 5.35 15.973 6.53 26.615 1.52 13.671.72 21.701-2.01 35.155-3.08 15.183-5.96 23.921-14.06 37.161-7.19 11.748-12.86 17.458-23.09 26.612-10.92 9.768-17.71 15.115-31.13 21.084-5.15 2.29-12.06 4.298-17.67 5.731-2.8.718-5.29 1.293-7.07 1.689-.82.183-1.5.327-1.99.43L1182.86 385h-88.38l-.15-.155L890.526 171h133.124l.03-.005.2-.036q.27-.049.75-.141c.64-.122 1.53-.3 2.54-.522 2.03-.446 4.5-1.064 6.35-1.764 6.42-2.431 9.84-4.786 15.37-8.932 3.63-2.719 5.44-4.498 8.43-7.928 4.41-5.073 6.14-8.869 8.4-15.337 2.53-7.236 3.01-11.638 2.97-19.333-.03-7.479-.95-11.773-3.47-18.834-1.9-5.324-3.15-8.324-6.43-12.876-4.39-6.099-7.99-8.776-14.37-12.871-3.67-2.358-8.87-4.467-13.18-5.992-2.16-.76-4.08-1.374-5.46-1.795-.69-.211-1.24-.374-1.63-.485l-.44-.125-.08-.024H823.693V0zM824.693 63h199.067l.07.018c0 .001 0 .002.01.002q0 .004.03.01c.02.007.06.017.11.032.1.028.26.07.45.127.39.111.95.276 1.64.489 1.4.425 3.33 1.04 5.5 1.807 4.32 1.53 9.62 3.67 13.39 6.094 6.43 4.126 10.14 6.885 14.64 13.129 3.35 4.66 4.65 7.757 6.56 13.124 2.56 7.15 3.5 11.556 3.53 19.166.04 7.778-.45 12.298-3.02 19.667-2.29 6.532-4.07 10.458-8.6 15.663-3.02 3.473-4.88 5.304-8.58 8.072-5.56 4.169-9.07 6.588-15.62 9.068-1.92.726-4.45 1.357-6.48 1.804a93 93 0 0 1-3.54.708c-.02.005-.04.007-.05.009s-.01.003-.02.003v.001l-.04.007H892.86l202.05 212h85.62l-143.32-150.812.89-.178v-.001l.01-.002.03-.007q.06-.01.15-.029l.56-.117a231.107 231.107 0 0 0 9.14-2.134c5.59-1.431 12.43-3.423 17.5-5.677 13.3-5.91 19.99-11.183 30.87-20.916 10.19-9.121 15.79-14.756 22.91-26.388 8.02-13.118 10.87-21.74 13.93-36.839 2.72-13.38 3.5-21.302 2-34.845-1.17-10.54-2.87-16.384-6.48-26.385-3.75-10.4-6.48-16.098-12.45-25.4-6.27-9.78-10.36-15.066-18.91-22.902-7.08-6.486-11.68-9.466-19.92-14.44l-.04-.019c-9.25-5.578-14.57-8.787-24.85-11.93-4.6-1.405-10.69-2.401-15.65-3.046a196 196 0 0 0-8.57-.921l-.13-.01-.02-.002H824.693z"/></svg>