<svg width="363" height="388" viewBox="0 0 363 388" fill="none" xmlns="http://www.w3.org/2000/svg">
<path d="M87.2126 232H1.21265L157.213 387H243.213L87.2126 232Z" fill="#E20404"/>
<path d="M4.71265 62.5V0.5H208.213C208.213 0.5 221.827 1.68329 230.213 4C244.269 7.88357 251.831 12.0435 263.713 20.5C277.778 30.5108 284.392 38.3014 294.213 52.5C305.097 68.2365 311.352 78.1638 314.713 97C318.296 117.084 315.377 129.401 309.713 149C305.562 163.361 302.473 171.541 294.213 184C284.828 198.155 277.698 205.365 263.713 215C248.066 225.78 218.713 233.5 218.713 233.5L361.213 384H274.213L71.2126 169.5H201.713C201.713 169.5 211.454 168.507 217.713 166C225.362 162.936 229.508 159.447 235.213 153.5C241.061 147.403 243.163 143.879 246.213 136C248.927 128.988 249.743 122.406 249.713 115.5C249.691 110.588 249.654 105.512 247.713 100C243.806 88.91 239.247 83.0255 230.213 75.5C220.813 67.6704 201.713 62.5 201.713 62.5H4.71265Z" fill="#FFFCFC"/>
<path d="M87.2126 232H1.21265L157.213 387H243.213L87.2126 232Z" stroke="black"/>
<path d="M4.71265 62.5V0.5H208.213C208.213 0.5 221.827 1.68329 230.213 4C244.269 7.88357 251.831 12.0435 263.713 20.5C277.778 30.5108 284.392 38.3014 294.213 52.5C305.097 68.2365 311.352 78.1638 314.713 97C318.296 117.084 315.377 129.401 309.713 149C305.562 163.361 302.473 171.541 294.213 184C284.828 198.155 277.698 205.365 263.713 215C248.066 225.78 218.713 233.5 218.713 233.5L361.213 384H274.213L71.2126 169.5H201.713C201.713 169.5 211.454 168.507 217.713 166C225.362 162.936 229.508 159.447 235.213 153.5C241.061 147.403 243.163 143.879 246.213 136C248.927 128.988 249.743 122.406 249.713 115.5C249.691 110.588 249.654 105.512 247.713 100C243.806 88.91 239.247 83.0255 230.213 75.5C220.813 67.6704 201.713 62.5 201.713 62.5H4.71265Z" stroke="black"/>
</svg>
