<svg width="385" height="385" viewBox="0 0 385 385" fill="none" xmlns="http://www.w3.org/2000/svg">
<path d="M107.707 0.5H383.207L323.207 66H107.707C107.707 66 103.384 67.0425 100.707 68C90.7637 71.5567 85.1362 75.0306 78.2071 83C70.8696 91.4391 67.7179 97.9196 66.2071 109C64.767 119.562 65.671 126.354 70.2071 136C74.2181 144.529 78.3222 148.643 85.7071 154.5C93.2333 160.469 107.707 165.5 107.707 165.5H274.207C274.207 165.5 306.273 168.244 323.207 178.5C339.276 188.232 345.816 197.85 356.207 213.5C365.049 226.816 369.964 234.96 373.707 250.5C378.006 268.344 377.482 279.538 373.707 297.5C370.127 314.537 366.157 324.215 356.207 338.5C346.101 353.009 338.416 360.481 323.207 369.5C306.043 379.679 274.207 384 274.207 384H1.20711L62.7071 322.5H274.207C274.207 322.5 284.429 319.479 290.207 316C296.376 312.286 299.666 309.589 304.207 304C312.234 294.12 315.923 286.228 315.707 273.5C315.5 261.319 312.044 253.828 304.207 244.5C295.545 234.19 274.207 227.5 274.207 227.5H107.707C107.707 227.5 78.7579 222.505 62.7071 213.5C47.9674 205.23 40.472 198.529 29.7071 185.5C17.5775 170.819 11.4632 160.94 6.70711 142.5C1.68419 123.025 2.54075 110.676 6.70711 91C10.1023 74.9663 13.3414 65.7842 22.2071 52C29.76 40.257 35.4012 34.3418 46.2071 25.5C55.3057 18.0551 60.9689 14.2856 71.7071 9.5C84.9437 3.601 107.707 0.5 107.707 0.5Z" fill="#E20404" stroke="black"/>
</svg>
